<svg xmlns="http://www.w3.org/2000/svg" viewBox="0 0 980 280" role="img" aria-label="Adakaro wordmark logo">
  <title>Adakaro Wordmark Logo</title>
  <defs>
    <linearGradient id="adakaroAGradientWordmark" x1="102" y1="220" x2="226" y2="56" gradientUnits="userSpaceOnUse">
      <stop offset="0" stop-color="#1D4ED8"/>
      <stop offset="1" stop-color="#60A5FA"/>
    </linearGradient>
    <linearGradient id="adakaroArcGradientWordmark" x1="134" y1="186" x2="198" y2="214" gradientUnits="userSpaceOnUse">
      <stop offset="0" stop-color="#FB923C"/>
      <stop offset="1" stop-color="#F97316"/>
    </linearGradient>
  </defs>

  <g>
    <path
      d="M52 232C70 230 86 218 98 200L154 56C157 48 163 44 170 45C162 35 148 35 140 45L68 198C60 212 48 223 34 228C40 230 46 232 52 232Z"
      fill="url(#adakaroAGradientWordmark)"
    />
    <path
      d="M260 232C242 230 226 218 214 200L158 56C155 48 149 44 142 45C150 35 164 35 172 45L244 198C252 212 264 223 278 228C272 230 266 232 260 232Z"
      fill="url(#adakaroAGradientWordmark)"
    />
    <path
      d="M112 198C124 182 142 172 156 172C170 172 188 182 200 198C182 190 168 186 156 186C144 186 130 190 112 198Z"
      fill="url(#adakaroArcGradientWordmark)"
    />
  </g>

  <text
    x="332"
    y="177"
    font-size="94"
    font-family="Inter, system-ui, -apple-system, Segoe UI, Roboto, Helvetica, Arial, sans-serif"
    font-weight="700"
    letter-spacing="2"
    fill="#0F172A"
  >
    ADAKARO
  </text>
</svg>
